# xmcd
#
# Track frame offsets: 
#        150
#        35827
#        65204
#        98248
#        126469
#        146462
#        174563
#        196112
#        239051
#        272522
#
# Disc length: 3961 seconds
#
# Revision: 1
# Processed by: cddbd v1.5.2PL0 Copyright (c) Steve Scherf et al.
# Submitted via: ExactAudioCopy v0.99pb3
#
DISCID=9b0f770a
DTITLE=Scott O'Dell - Island of the Blue Dolphin - Disc 3 of 4
DYEAR=1960
DGENRE=Audiobook
TTITLE0=Disc 3.A
TTITLE1=Disc 3.B
TTITLE2=Disc 3.C
TTITLE3=Disc 3.D
TTITLE4=Disc 3.E
TTITLE5=Disc 3.F
TTITLE6=Disc 3.G
TTITLE7=Disc 3.H
TTITLE8=Disc 3.I
TTITLE9=Disc 3.J
EXTD=Island of the Blue Dolphins by Scott O'Dell\nread by Tantoo Cardi
EXTD=nal 4 CDs
EXTT0=
EXTT1=
EXTT2=
EXTT3=
EXTT4=
EXTT5=
EXTT6=
EXTT7=
EXTT8=
EXTT9=
PLAYORDER=
